<svg width="18" height="19" viewBox="0 0 18 19" fill="none" xmlns="http://www.w3.org/2000/svg">
<path d="M9 0.5C11.3869 0.5 13.6761 1.44821 15.364 3.13604C17.0518 4.82387 18 7.11305 18 9.5C18 11.8869 17.0518 14.1761 15.364 15.864C13.6761 17.5518 11.3869 18.5 9 18.5C6.61305 18.5 4.32387 17.5518 2.63604 15.864C0.948211 14.1761 0 11.8869 0 9.5C0 7.11305 0.948211 4.82387 2.63604 3.13604C4.32387 1.44821 6.61305 0.5 9 0.5ZM9 8.40843L6.90943 6.31786C6.76468 6.17311 6.56835 6.09179 6.36364 6.09179C6.15893 6.09179 5.96261 6.17311 5.81786 6.31786C5.67311 6.46261 5.59179 6.65893 5.59179 6.86364C5.59179 7.06835 5.67311 7.26468 5.81786 7.40943L7.90843 9.5L5.81786 11.5906C5.74618 11.6622 5.68933 11.7473 5.65054 11.841C5.61175 11.9346 5.59179 12.035 5.59179 12.1364C5.59179 12.2377 5.61175 12.3381 5.65054 12.4317C5.68933 12.5254 5.74618 12.6105 5.81786 12.6821C5.88953 12.7538 5.97462 12.8107 6.06827 12.8495C6.16191 12.8882 6.26228 12.9082 6.36364 12.9082C6.465 12.9082 6.56537 12.8882 6.65902 12.8495C6.75267 12.8107 6.83776 12.7538 6.90943 12.6821L9 10.5916L11.0906 12.6821C11.1622 12.7538 11.2473 12.8107 11.341 12.8495C11.4346 12.8882 11.535 12.9082 11.6364 12.9082C11.7377 12.9082 11.8381 12.8882 11.9317 12.8495C12.0254 12.8107 12.1105 12.7538 12.1821 12.6821C12.2538 12.6105 12.3107 12.5254 12.3495 12.4317C12.3882 12.3381 12.4082 12.2377 12.4082 12.1364C12.4082 12.035 12.3882 11.9346 12.3495 11.841C12.3107 11.7473 12.2538 11.6622 12.1821 11.5906L10.0916 9.5L12.1821 7.40943C12.2538 7.33776 12.3107 7.25267 12.3495 7.15902C12.3882 7.06537 12.4082 6.965 12.4082 6.86364C12.4082 6.76228 12.3882 6.66191 12.3495 6.56827C12.3107 6.47462 12.2538 6.38953 12.1821 6.31786C12.1105 6.24618 12.0254 6.18933 11.9317 6.15054C11.8381 6.11175 11.7377 6.09179 11.6364 6.09179C11.535 6.09179 11.4346 6.11175 11.341 6.15054C11.2473 6.18933 11.1622 6.24618 11.0906 6.31786L9 8.40843Z" fill="#91A4AE"/>
</svg>
