<svg width="27" height="27" viewBox="0 0 27 27" fill="none" xmlns="http://www.w3.org/2000/svg">
<path d="M13.3533 26.7125C10.2186 26.7112 7.08389 26.7202 3.94917 26.7087C1.61957 26.701 0.0259764 25.1586 0.0182964 22.8367C-0.00474352 16.781 -0.00602352 10.724 0.0144565 4.66837C0.0208564 2.36309 1.65029 0.797651 3.95173 0.795091C6.89445 0.791251 9.83716 0.789971 12.7812 0.791251C13.512 0.791251 13.905 1.08181 13.9204 1.62325C13.937 2.17621 13.5069 2.50133 12.7607 2.50005C9.9242 2.49749 7.08773 2.49237 4.25253 2.49493C2.47973 2.49621 1.73477 3.24629 1.73349 5.03317C1.72709 10.8124 1.71173 16.5916 1.74117 22.3707C1.74373 22.9787 1.90757 23.6443 2.19045 24.1794C2.51301 24.7887 3.17093 25.0037 3.88645 25.0037C10.2199 24.9973 16.5533 25.005 22.8867 24.9999C24.1194 24.9986 24.968 24.109 24.9731 22.8213C24.9834 20.1128 24.9808 17.4044 24.9834 14.6959C24.9834 14.5256 24.968 14.3528 24.9898 14.1852C25.0563 13.6834 25.3059 13.3404 25.8551 13.3519C26.3965 13.3634 26.673 13.6962 26.6947 14.2095C26.7229 14.8904 26.7088 15.574 26.7088 16.2562C26.7088 18.4309 26.7101 20.6069 26.705 22.7816C26.6999 25.0792 25.1242 26.6946 22.8227 26.7087C19.6663 26.7279 16.5098 26.7125 13.3533 26.7125Z" fill="#223E4A"/>
<path d="M26.5999 4.13009C26.4091 4.41553 26.285 4.68689 26.0879 4.88657C23.4178 7.58097 20.7362 10.2651 18.0597 12.9544C15.9848 15.0382 13.9176 17.1298 11.8338 19.2046C11.6316 19.4056 11.3653 19.5758 11.0965 19.6693C9.59124 20.1941 8.08468 20.715 6.56021 21.1771C6.26965 21.2654 5.80501 21.195 5.59253 21.0056C5.40053 20.8354 5.31989 20.363 5.40309 20.0891C5.89333 18.4827 6.43861 16.8917 6.98644 15.3032C7.05812 15.0933 7.2194 14.8974 7.38068 14.7362C12.1436 9.94385 16.909 5.15409 21.6783 0.368179C22.1634 -0.118221 22.6383 -0.124621 23.1272 0.360499C24.141 1.3653 25.1458 2.38162 26.1378 3.40817C26.3195 3.59377 26.4258 3.85105 26.5999 4.13009ZM19.1323 5.41649C19.0914 5.44593 19.0517 5.46641 19.0223 5.49713C15.5932 8.93649 12.1653 12.3746 8.73876 15.8165C8.63636 15.9189 8.53652 16.0456 8.49044 16.18C8.17684 17.0965 7.8786 18.0194 7.53812 19.051C8.333 18.7938 9.05108 18.6133 9.72308 18.3253C10.2325 18.1064 10.7586 17.8286 11.149 17.4446C13.7 14.9358 16.2088 12.3848 18.7445 9.85937C19.5547 9.05297 20.4034 8.28369 21.2456 7.48497C20.4674 6.72337 19.8171 6.08721 19.1323 5.41649ZM20.4315 4.10065C21.1125 4.77137 21.7743 5.42161 22.3874 6.02449C23.0415 5.38705 23.7058 4.73809 24.2741 4.18385C23.6405 3.50673 23.0069 2.8309 22.4232 2.20754C21.7589 2.83858 21.0984 3.46705 20.4315 4.10065Z" fill="#223E4A"/>
</svg>