<svg width="119" height="119" viewBox="0 0 119 119" fill="none" xmlns="http://www.w3.org/2000/svg">
<g clip-path="url(#clip0)">
<path d="M68.6602 62.9377L31.8303 70.1979C30.1475 70.5345 28.5127 69.4286 28.1762 67.7458L23.7527 45.2921C23.4162 43.6092 24.522 41.9745 26.2049 41.6379L63.0348 34.3777C64.7176 34.0412 66.3523 35.147 66.6889 36.8299L71.1123 59.2836C71.497 60.9183 70.343 62.6012 68.6602 62.9377Z" stroke="#8CC540" stroke-width="3" stroke-miterlimit="10"/>
<path d="M56.0153 49.8117C58.2459 49.8117 60.0541 48.0035 60.0541 45.7729C60.0541 43.5424 58.2459 41.7341 56.0153 41.7341C53.7848 41.7341 51.9766 43.5424 51.9766 45.7729C51.9766 48.0035 53.7848 49.8117 56.0153 49.8117Z" stroke="#8CC540" stroke-width="3" stroke-miterlimit="10"/>
<path d="M51.447 59.0432C50.7257 55.2929 53.1298 51.6387 56.9282 50.9175C60.7265 50.1963 64.3326 52.6004 65.0538 56.3987" stroke="#8CC540" stroke-width="3" stroke-miterlimit="10"/>
<path d="M44.0904 48.1288L31.6856 50.5809C31.2047 50.6771 30.7239 50.3405 30.6278 49.8597C30.5316 49.3789 30.8682 48.8981 31.349 48.8019L43.7538 46.3498C44.2346 46.2537 44.7155 46.5902 44.8116 47.071C44.8597 47.5518 44.5712 48.0326 44.0904 48.1288Z" fill="#8CC540"/>
<path d="M45.1002 53.2254L32.6953 55.6775C32.2145 55.7737 31.7337 55.4371 31.6375 54.9563C31.5414 54.4755 31.8779 53.9947 32.3588 53.8985L44.7155 51.4464C45.1963 51.3502 45.6771 51.6868 45.7733 52.1676C45.8695 52.6484 45.581 53.1292 45.1002 53.2254Z" fill="#8CC540"/>
<path d="M46.1588 58.7547L33.7539 61.2068C33.2731 61.3029 32.7923 60.9664 32.6961 60.4856C32.6 60.0048 32.9365 59.524 33.4173 59.4278L45.8222 56.9757C46.303 56.8795 46.7838 57.2161 46.88 57.6969C46.9761 58.1777 46.6396 58.6585 46.1588 58.7547Z" fill="#8CC540"/>
<path d="M59.4764 118.231C91.9258 118.231 118.231 91.9253 118.231 59.4759C118.231 27.0266 91.9258 0.721191 59.4764 0.721191C27.0271 0.721191 0.72168 27.0266 0.72168 59.4759C0.72168 91.9253 27.0271 118.231 59.4764 118.231Z" stroke="#D5D5D5" stroke-width="3" stroke-miterlimit="10"/>
<path d="M41.9267 91.017L70.1982 96.1135C72.8908 96.5943 75.5352 94.8153 76.016 92.0747L86.4496 34.522C86.9304 31.8295 85.1514 29.185 82.4108 28.7042L67.4095 25.9636V28.7042L80.7279 31.1083C82.7473 31.4929 84.0455 33.3681 83.709 35.3875L75.3429 81.497C74.9582 83.5163 73.0831 84.8145 71.0637 84.478L45.052 79.8141C43.7538 79.5737 42.7922 78.7083 42.3114 77.6024L39.4265 76.6889L37.8879 85.2473C37.4071 87.9398 39.1861 90.5361 41.9267 91.017ZM53.6584 87.2186C53.995 85.4396 55.7259 84.2376 57.5049 84.5741C59.2839 84.9107 60.4859 86.6416 60.1493 88.4206C59.8128 90.1996 58.0819 91.4016 56.3029 91.065C54.5239 90.7285 53.3219 89.0456 53.6584 87.2186Z" fill="#8CC540"/>
</g>
<defs>
<clipPath id="clip0">
<rect width="119" height="119" fill="white"/>
</clipPath>
</defs>
</svg>
